<svg
  xmlns="http://www.w3.org/2000/svg"
  version="1.1"
  xmlns:xlink="http://www.w3.org/1999/xlink"
  width="512"
  height="512"
  x="0"
  y="0"
  viewBox="0 0 128 128"
  style="enable-background: new 0 0 512 512"
  xml:space="preserve"
  class=""
>
  <g>
    <path
      d="M23.608 22.15v26.572a2 2 0 0 0 4 0V24.15H33a2 2 0 0 0 1.643-3.141l-14-20.15a2 2 0 0 0-3.286 0l-14 20.15A2 2 0 0 0 5 24.15h5.392V64a2 2 0 0 0 4 0V22.15a2 2 0 0 0-2-2H8.825L19 5.505 29.175 20.15h-3.567a2 2 0 0 0-2 2Z"
      fill="#52c41a"
      opacity="1"
      data-original="#52c41a"
      class=""
    ></path>
    <path
      d="m96.392 86.715-10.6 6.082V53.75L100 45.562v27.972a5.975 5.975 0 0 1 2.392-.499 5.903 5.903 0 0 1 1.608.245V44.514a6.015 6.015 0 0 0-3.014-5.204l-34-19.51a6.026 6.026 0 0 0-5.972.002L31.608 36.673v4.612l31.396-18.013a2.074 2.074 0 0 1 1.992-.001l13.141 7.54-33.862 19.514-12.667-7.3v4.616L62 65.155v38.998L29.005 85.222A2.007 2.007 0 0 1 28 83.486V54.223a5.975 5.975 0 0 1-2.392.499A5.908 5.908 0 0 1 24 54.477v29.01a6.015 6.015 0 0 0 3.014 5.203l34 19.51a6.078 6.078 0 0 0 5.972-.002l29.406-16.871ZM82.151 33.114l15.754 9.04L64 61.69l-15.72-9.058ZM66 104.152V65.155l15.791-9.1v39.037Z"
      fill="#52c41a"
      opacity="1"
      data-original="#52c41a"
      class=""
    ></path>
    <path
      d="M124.776 105.252a2.001 2.001 0 0 0-1.776-1.08h-5.392V64a2 2 0 0 0-4 0v42.172a2 2 0 0 0 2 2h3.532L109 122.532l-10.14-14.36h3.532a2 2 0 0 0 2-2V79.035a2 2 0 0 0-4 0v25.137H95a2 2 0 0 0-1.634 3.153l14 19.828a2 2 0 0 0 3.268 0l14-19.828a1.999 1.999 0 0 0 .142-2.073Z"
      fill="#52c41a"
      opacity="1"
      data-original="#52c41a"
      class=""
    ></path>
  </g>
</svg>
